<svg width="90" height="84" viewBox="0 0 90 84" fill="none" xmlns="http://www.w3.org/2000/svg">
<path opacity="0.08" d="M30.919 6.9468C14.7633 -2.78998 6.36865 7.7582 4.1908 14.2494C-0.560874 25.2033 -3.0248 44.7526 6.56664 59.8906C45.174 109.792 81.4055 68.4103 86.1572 58.0649C100.425 27 70.7142 22.1605 65.9625 21.552C46.9558 17.2921 39.2344 12.4237 30.919 6.9468Z" fill="#75DAB4"/>
<path d="M35.1102 0.19413C34.8891 0.305069 32.816 2.28808 30.5217 4.59003C27.0526 8.1123 26.3339 8.90273 26.2095 9.36034C26.1128 9.73476 26.0575 14.3109 26.0575 23.9486V37.9822L24.1502 39.6463C21.9112 41.5738 21.5657 41.9621 21.4413 42.6277C21.2892 43.4598 21.5795 44.1531 22.5746 45.3318C26.9559 50.5459 27.177 50.7539 28.2412 50.7539C28.7388 50.7539 28.8631 50.8232 29.3054 51.3641L29.803 51.9881L29.5957 52.7092C29.3192 53.6244 29.3192 53.985 29.5818 54.9002C29.8721 55.857 30.7152 56.7445 31.6826 57.0773C32.346 57.3131 32.3875 57.3686 32.4704 57.8816C32.6777 59.1852 33.742 60.4193 34.9167 60.7383C35.4005 60.877 35.4419 60.9324 35.5801 61.5842C35.6631 61.9586 35.8151 62.4439 35.9257 62.6658C36.2021 63.1928 37.0866 63.9693 37.6671 64.1912C38.4826 64.4963 38.5655 64.5656 38.6346 65.1203C38.8972 66.9785 40.9289 68.4068 42.7256 67.9908L43.3475 67.8521L44.3841 69.0725C45.6833 70.5979 46.2914 70.9307 47.6873 70.9307C48.7654 70.9168 49.3182 70.6949 50.0784 69.9738C50.6036 69.4885 51.0735 68.6564 51.0735 68.2266C51.0735 68.0324 51.1702 67.9492 51.3914 67.9492C51.9442 67.9492 52.9255 67.5471 53.4645 67.1033C53.9621 66.7012 54.6669 65.5363 54.6669 65.1342C54.6669 65.0232 54.971 64.8984 55.4271 64.8014C56.7539 64.5102 57.901 63.4562 58.1913 62.2221C58.2466 62.0141 58.371 61.8477 58.4539 61.8477C58.9929 61.8477 60.14 61.3484 60.6238 60.9186C61.4669 60.1559 61.7709 59.4625 61.7847 58.3115C61.7847 57.5211 61.7156 57.2021 61.4254 56.6336L61.0661 55.9402L62.9181 54.3455C64.7286 52.8062 64.7977 52.7646 65.3644 52.8062C65.6961 52.834 66.1798 52.7646 66.4562 52.6398C67.1058 52.3764 72.5651 47.6893 72.9245 47.093C73.3253 46.4412 73.3944 45.8311 73.1318 45.1654C72.9936 44.8187 72.0676 43.5984 70.7684 42.0869L68.64 39.5908L68.5985 20.6621C68.557 -0.513092 68.64 1.28964 67.5619 0.457611L67.0644 0.0693283L51.2946 0.0415955C38.2338 0.013855 35.4558 0.0415955 35.1102 0.19413ZM66.2489 19.525C66.2627 29.2598 66.2213 36.6094 66.1522 36.5816C66.0969 36.5678 64.8392 35.1395 63.388 33.4199C61.923 31.7004 60.5409 30.1611 60.3059 29.9947C60.0848 29.8422 59.684 29.6619 59.4214 29.6203C58.4539 29.4262 58.0254 29.6896 54.8881 32.3799C53.2572 33.7805 51.806 35.0978 51.6816 35.292C51.3914 35.7357 51.2808 36.748 51.4605 37.275L51.5987 37.6771L50.8938 37.7742C50.493 37.8158 49.8572 37.8574 49.4702 37.8574C48.4475 37.8574 47.4938 38.1902 46.7337 38.8281C46.3329 39.1609 45.9735 39.3689 45.8491 39.3135C45.7248 39.2719 45.1166 39.1055 44.4809 38.9391C43.4028 38.6756 43.3199 38.6201 43.4028 38.3566C43.6516 37.6217 43.6378 36.7896 43.3475 36.2488C42.9329 35.4584 38.372 30.2166 37.8192 29.8977C37.2387 29.5648 36.2436 29.5371 35.6631 29.856C35.4419 29.9809 33.7558 31.3537 31.9452 32.9207C30.1209 34.4877 28.5867 35.7773 28.5176 35.7773C28.4623 35.7773 28.4071 30.1334 28.4071 23.2275V10.6777H31.4891C33.1753 10.6777 34.7785 10.6223 35.0273 10.5391C35.5663 10.3865 36.2159 9.83183 36.5062 9.26328C36.6582 8.97206 36.6996 8.16777 36.6996 5.6162V2.35741L51.4605 2.38515L66.2075 2.42675L66.2489 19.525ZM34.3501 6.24023V8.3203H32.2493H30.1347L32.2078 6.24023C33.3411 5.08925 34.2948 4.16015 34.3086 4.16015C34.3363 4.16015 34.3501 5.08925 34.3501 6.24023ZM39.0354 34.6818C40.2793 36.124 41.2744 37.3305 41.2468 37.3582C41.2191 37.3859 38.3029 39.882 34.7785 42.9051L28.3656 48.4103L28.0477 48.0914C27.4672 47.4951 23.8461 43.1963 23.8461 43.1131C23.8461 43.0021 36.5891 32.0332 36.6996 32.0332C36.7549 32.0332 37.7915 33.2258 39.0354 34.6818ZM64.8945 38.8281C68.0871 42.5584 70.7407 45.7062 70.7822 45.8033C70.8099 45.9143 70.1464 46.5799 69.1513 47.4258C68.2253 48.2301 67.0367 49.2424 66.5253 49.6861L65.5993 50.4904L59.6425 43.5291C55.8279 39.0639 53.7409 36.5123 53.8239 36.4291C54.2247 36.0269 58.8962 32.0471 58.9791 32.0471C59.0205 32.0332 61.688 35.084 64.8945 38.8281ZM58.2604 45.526C60.8587 48.5629 62.9595 51.1006 62.9319 51.1561C62.8766 51.3225 59.6425 54.082 59.5181 54.082C59.449 54.082 57.5555 51.9187 55.3027 49.2701C51.9442 45.3457 51.2117 44.4166 51.2808 44.1809C51.5434 43.3488 51.5296 43.1408 51.1011 42.7109C50.6727 42.2811 50.2719 42.1978 49.8296 42.4336C49.6914 42.5029 47.9085 44.0006 45.8768 45.7617C42.6427 48.5352 42.1037 48.9512 41.7028 48.9512C41.0671 48.9512 40.763 48.757 40.5833 48.2439C40.4728 47.9389 40.4866 47.717 40.611 47.4258C40.7492 47.1068 47.8117 40.8805 48.5719 40.4228C48.7654 40.298 52.6767 39.9514 53.3125 39.993C53.4369 39.993 55.662 42.4891 58.2604 45.526ZM42.698 40.9082C43.8451 41.2133 43.9004 41.2549 43.6516 41.449C43.5134 41.5738 42.3801 42.5307 41.15 43.5846C38.5655 45.8172 38.22 46.3164 38.22 47.7863C38.22 50.3379 40.8598 52.0574 43.1264 50.9758C43.5134 50.7955 45.0475 49.5891 46.554 48.2855L49.3044 45.9281L49.7467 46.4273C49.9954 46.7186 52.2897 49.3949 54.8466 52.3764C59.836 58.2145 59.836 58.2006 59.2279 58.9771C58.91 59.3793 58.4124 59.5457 57.9563 59.3654C57.7628 59.2961 57.0303 58.5473 56.3255 57.7014C54.7222 55.8154 54.2799 55.6074 53.4645 56.3424C52.9117 56.8416 53.0361 57.4795 53.8653 58.4502C56.132 61.0988 56.2149 61.2791 55.6206 62.0418C55.3994 62.3191 55.2198 62.4023 54.7775 62.4023C54.2523 62.4023 54.1417 62.333 53.506 61.6119C52.1377 60.0588 51.958 59.9062 51.5158 59.9062C50.88 59.9062 50.3271 60.4471 50.3271 61.0572C50.3271 61.4455 50.4654 61.709 51.0182 62.3469C51.3914 62.7906 51.8336 63.3314 52.0133 63.5672C52.58 64.3299 52.3174 65.3422 51.5019 65.5225C50.9629 65.6334 50.5759 65.4254 49.8572 64.6072C49.332 64.0248 49.18 63.9277 48.7239 63.9277C47.9776 63.9277 47.5491 64.316 47.5491 64.9955C47.5491 65.4393 47.6735 65.675 48.1711 66.2713C48.9312 67.1727 49.0003 67.7967 48.3922 68.3098C47.6735 68.9338 47.2036 68.7396 45.9735 67.3113L45.1305 66.3129L45.3378 65.7305C45.4483 65.4115 45.5451 64.8152 45.5451 64.4131C45.5451 63.0125 44.3979 61.5148 43.0573 61.1543C42.615 61.0295 42.5045 60.9463 42.5045 60.6828C42.5045 60.1836 42.1451 59.2684 41.7443 58.7414C41.4264 58.3254 40.3899 57.6875 39.7264 57.4934C39.5882 57.4518 39.4638 57.216 39.4086 56.8555C39.2151 55.5797 38.1785 54.3594 37.0728 54.0543C36.4785 53.9018 36.4647 53.8879 36.2988 53.0975C36.0777 52.0297 35.4696 51.2115 34.4883 50.7123C33.7972 50.3518 33.6176 50.324 32.6501 50.3795L31.5721 50.435L31.1851 49.9357L30.7843 49.4365L35.9948 44.9574C38.8557 42.5029 41.2606 40.5199 41.3297 40.5477C41.4126 40.5615 42.0207 40.7418 42.698 40.9082ZM33.7281 53.042C34.4468 53.7492 33.9355 54.9141 32.8989 54.9141C32.1664 54.9141 31.6688 54.3732 31.7794 53.6937C31.9314 52.7092 33.0509 52.3486 33.7281 53.042ZM36.8102 56.6613C37.2248 57.1189 37.211 57.743 36.7688 58.1728C35.9671 58.991 34.585 58.2422 34.8338 57.1328C35.0411 56.176 36.133 55.9264 36.8102 56.6613ZM39.5053 59.934C40.2378 60.3223 40.3899 61.2098 39.8094 61.7783C39.3809 62.2221 38.7728 62.2221 38.2752 61.7922C37.2663 60.9324 38.3443 59.31 39.5053 59.934ZM42.85 63.7197C43.6654 64.524 42.9191 65.9107 41.8134 65.6611C40.9012 65.4531 40.5972 64.316 41.3159 63.7059C41.8134 63.276 42.4215 63.276 42.85 63.7197Z" fill="#75DAB4"/>
<path d="M37.4875 11.8842C37.3493 11.912 36.5753 12.8411 35.7599 13.9227L34.281 15.9057L33.8664 15.6423C33.2859 15.2956 32.8713 15.3372 32.4014 15.7948C31.7656 16.4327 31.8624 16.7932 32.9128 17.8887C33.8526 18.8733 34.2257 19.0536 34.8201 18.804C35.0274 18.7069 35.9534 17.6114 37.1143 16.0444C38.6761 13.9366 39.0493 13.3542 39.0493 12.9798C39.0493 12.2587 38.2338 11.6762 37.4875 11.8842Z" fill="#75DAB4"/>
<path d="M43.389 11.9258C42.6289 12.2309 42.4216 13.2432 42.9882 13.7979C43.2785 14.1029 43.4443 14.1445 44.4118 14.1445C45.3655 14.1445 45.5313 14.1029 45.7939 13.8256C46.1118 13.4789 46.1947 12.7855 45.9598 12.3418C45.711 11.8564 44.163 11.6068 43.389 11.9258Z" fill="#75DAB4"/>
<path d="M49.1939 11.9813C48.489 12.2864 48.337 13.2987 48.9036 13.8395C49.2215 14.1446 49.2492 14.1446 55.593 14.1446C62.7108 14.1446 62.4758 14.1723 62.6279 13.16C62.697 12.7579 62.6417 12.5915 62.3653 12.2586L62.0197 11.8565L55.8141 11.8288C50.8248 11.801 49.5394 11.8288 49.1939 11.9813Z" fill="#75DAB4"/>
<path d="M43.5134 16.5989C43.0988 16.6821 42.6427 17.2784 42.6427 17.7638C42.6427 17.9718 42.7947 18.3323 42.9744 18.5403L43.3061 18.9286L47.5353 18.9702C52.3588 19.0257 52.7597 18.9702 53.1052 18.2352C53.3263 17.7915 53.3263 17.7083 53.1052 17.2784C52.9393 16.9179 52.7458 16.7653 52.3588 16.6544C51.8613 16.5157 44.1906 16.4602 43.5134 16.5989Z" fill="#75DAB4"/>
<path d="M37.2248 21.5218C37.1142 21.6189 36.437 22.4786 35.7321 23.4355C35.0273 24.3923 34.3915 25.2244 34.3362 25.2937C34.2671 25.3769 34.1012 25.3214 33.9354 25.1689C33.3134 24.6003 32.2492 24.9609 32.0696 25.7929C31.959 26.306 32.2354 26.8191 32.9956 27.5402C34.4606 28.9546 34.585 28.8992 37.0589 25.5988C39.2427 22.6728 39.367 22.3677 38.7036 21.7021C38.3305 21.3138 37.598 21.2306 37.2248 21.5218Z" fill="#75DAB4"/>
<path d="M42.9883 21.7023C42.2419 22.4372 42.7671 23.5466 43.9143 23.6714C45.3378 23.8378 46.098 23.4218 46.098 22.4927C46.098 21.6191 45.6972 21.3556 44.3842 21.3556C43.4444 21.3556 43.2785 21.3972 42.9883 21.7023Z" fill="#75DAB4"/>
<path d="M48.8898 21.6744C48.5028 22.0904 48.4751 22.9086 48.8483 23.283C49.0003 23.4355 49.332 23.6019 49.5808 23.6435C49.8296 23.6851 52.732 23.7129 56.0214 23.6851L62.0197 23.6435L62.3652 23.2414C62.6416 22.9086 62.6969 22.7422 62.6278 22.34C62.4758 21.3277 62.7246 21.3554 55.5791 21.3554H49.18L48.8898 21.6744Z" fill="#75DAB4"/>
<path d="M42.9883 26.417C42.5045 26.8885 42.5322 27.4986 43.0435 28.0256L43.4444 28.4277H47.8118C50.2443 28.4277 52.3174 28.3723 52.5109 28.2891C52.9394 28.1227 53.3264 27.4154 53.202 26.9994C53.1605 26.833 52.9808 26.5557 52.8288 26.3754C52.5524 26.0703 52.5386 26.0703 47.9362 26.0703H43.32L42.9883 26.417Z" fill="#75DAB4"/>
</svg>
