<svg width="96" height="30" viewBox="0 0 96 30" fill="none" xmlns="http://www.w3.org/2000/svg">
<mask id="path-1-inside-1_2_27388" fill="white">
<path d="M30 15C30 11.2629 28.605 7.66038 26.0882 4.89787C23.5713 2.13537 20.1139 0.411854 16.3929 0.0648163C12.672 -0.282222 8.95549 0.772215 5.9712 3.02165C2.98692 5.27109 0.949782 8.5535 0.258705 12.2262C-0.432372 15.8988 0.272385 19.6972 2.23497 22.8774C4.19756 26.0577 7.27662 28.3909 10.8692 29.42C14.4618 30.4492 18.3092 30.1002 21.658 28.4414C25.0068 26.7826 27.6158 23.9335 28.9741 20.452L27.6173 19.9227C26.3909 23.0661 24.0352 25.6386 21.0116 27.1363C17.9879 28.634 14.5141 28.9491 11.2703 28.0199C8.02651 27.0907 5.24641 24.9841 3.47438 22.1126C1.70235 19.2411 1.06602 15.8115 1.68999 12.4955C2.31397 9.17942 4.15331 6.21571 6.84784 4.18468C9.54238 2.15365 12.898 1.20159 16.2577 1.51493C19.6174 1.82827 22.7391 3.38445 25.0116 5.87873C27.284 8.37301 28.5436 11.6257 28.5436 15H30Z"/>
</mask>
<path d="M30 15C30 11.2629 28.605 7.66038 26.0882 4.89787C23.5713 2.13537 20.1139 0.411854 16.3929 0.0648163C12.672 -0.282222 8.95549 0.772215 5.9712 3.02165C2.98692 5.27109 0.949782 8.5535 0.258705 12.2262C-0.432372 15.8988 0.272385 19.6972 2.23497 22.8774C4.19756 26.0577 7.27662 28.3909 10.8692 29.42C14.4618 30.4492 18.3092 30.1002 21.658 28.4414C25.0068 26.7826 27.6158 23.9335 28.9741 20.452L27.6173 19.9227C26.3909 23.0661 24.0352 25.6386 21.0116 27.1363C17.9879 28.634 14.5141 28.9491 11.2703 28.0199C8.02651 27.0907 5.24641 24.9841 3.47438 22.1126C1.70235 19.2411 1.06602 15.8115 1.68999 12.4955C2.31397 9.17942 4.15331 6.21571 6.84784 4.18468C9.54238 2.15365 12.898 1.20159 16.2577 1.51493C19.6174 1.82827 22.7391 3.38445 25.0116 5.87873C27.284 8.37301 28.5436 11.6257 28.5436 15H30Z" stroke="#75DAB4" stroke-width="1.6" mask="url(#path-1-inside-1_2_27388)"/>
<path d="M18.942 21L17.123 16.41H16.834H13.162V21H11.7V9.304H17.072C18.0013 9.304 18.704 9.45133 19.18 9.746C19.656 10.0407 19.9677 10.4373 20.115 10.936C20.2623 11.4347 20.336 12.075 20.336 12.857C20.336 13.6617 20.217 14.3643 19.979 14.965C19.741 15.5543 19.2537 15.9567 18.517 16.172L20.506 21H18.942ZM16.46 15.05C17.1853 15.05 17.718 14.9763 18.058 14.829C18.4093 14.6703 18.6303 14.4437 18.721 14.149C18.823 13.8543 18.874 13.4237 18.874 12.857C18.874 12.279 18.8287 11.8427 18.738 11.548C18.6473 11.2533 18.4377 11.0323 18.109 10.885C17.7917 10.7377 17.2817 10.664 16.579 10.664H13.162V15.05H16.46ZM30.0029 17.158H24.0699C24.0699 17.9853 24.1266 18.5747 24.2399 18.926C24.3532 19.2773 24.5969 19.5267 24.9709 19.674C25.3562 19.81 25.9966 19.878 26.8919 19.878C27.7646 19.878 28.6882 19.8157 29.6629 19.691V20.898C29.3002 20.966 28.8299 21.0227 28.2519 21.068C27.6739 21.1133 27.1242 21.136 26.6029 21.136C25.4356 21.136 24.5742 21 24.0189 20.728C23.4749 20.456 23.1179 20.0197 22.9479 19.419C22.7779 18.8183 22.6929 17.906 22.6929 16.682C22.6929 15.4807 22.7666 14.5797 22.9139 13.979C23.0726 13.3783 23.4182 12.9307 23.9509 12.636C24.4949 12.3413 25.3506 12.194 26.5179 12.194C27.6059 12.194 28.3936 12.3413 28.8809 12.636C29.3682 12.9193 29.6742 13.3557 29.7989 13.945C29.9349 14.523 30.0029 15.4297 30.0029 16.665V17.158ZM26.4839 13.452C25.7472 13.452 25.2146 13.52 24.8859 13.656C24.5686 13.7807 24.3532 14.0243 24.2399 14.387C24.1379 14.7383 24.0812 15.3107 24.0699 16.104H28.6769V15.968C28.6769 15.22 28.6089 14.6703 28.4729 14.319C28.3482 13.9677 28.1386 13.7353 27.8439 13.622C27.5492 13.5087 27.0959 13.452 26.4839 13.452ZM34.8916 21.136C33.8943 21.136 33.1689 20.9547 32.7156 20.592C32.2623 20.218 32.0356 19.5607 32.0356 18.62C32.0356 17.9513 32.1149 17.43 32.2736 17.056C32.4323 16.682 32.6986 16.41 33.0726 16.24C33.4579 16.07 33.9963 15.985 34.6876 15.985C35.0163 15.985 36.0986 16.0133 37.9346 16.07V15.56C37.9346 14.88 37.8666 14.3983 37.7306 14.115C37.6059 13.8317 37.3679 13.6503 37.0166 13.571C36.6766 13.4917 36.0929 13.452 35.2656 13.452C34.9029 13.452 34.4439 13.4747 33.8886 13.52C33.3446 13.554 32.9196 13.5937 32.6136 13.639V12.432C33.5089 12.2733 34.5573 12.194 35.7586 12.194C36.7786 12.194 37.5379 12.3017 38.0366 12.517C38.5466 12.721 38.8866 13.061 39.0566 13.537C39.2266 14.0017 39.3116 14.6817 39.3116 15.577V21H38.0706L38.0026 19.793H37.9006C37.6626 20.337 37.2773 20.6997 36.7446 20.881C36.2233 21.051 35.6056 21.136 34.8916 21.136ZM35.4186 19.895C35.9853 19.895 36.4443 19.844 36.7956 19.742C37.1583 19.64 37.4189 19.4417 37.5776 19.147C37.8156 18.739 37.9346 18.1723 37.9346 17.447V17.056H35.0446C34.5686 17.056 34.2173 17.09 33.9906 17.158C33.7753 17.226 33.6223 17.362 33.5316 17.566C33.4409 17.7587 33.3956 18.0647 33.3956 18.484C33.3956 18.892 33.4466 19.1923 33.5486 19.385C33.6506 19.5777 33.8376 19.7137 34.1096 19.793C34.3929 19.861 34.8293 19.895 35.4186 19.895ZM45.1139 21.136C44.2526 21.136 43.5952 21.0057 43.1419 20.745C42.6886 20.4843 42.3656 20.0423 42.1729 19.419C41.9916 18.7843 41.9009 17.872 41.9009 16.682C41.9009 15.4807 41.9916 14.5627 42.1729 13.928C42.3542 13.2933 42.6659 12.8457 43.1079 12.585C43.5612 12.3243 44.2129 12.194 45.0629 12.194C45.8109 12.194 46.4116 12.2847 46.8649 12.466C47.3296 12.6473 47.6696 12.9647 47.8849 13.418H47.9869V8.369H49.3639V21H48.1229L48.0719 19.793H47.9699C47.7319 20.3143 47.3692 20.6713 46.8819 20.864C46.3946 21.0453 45.8052 21.136 45.1139 21.136ZM45.6409 19.81C46.2302 19.81 46.6949 19.7363 47.0349 19.589C47.3749 19.4303 47.6072 19.1867 47.7319 18.858C47.8452 18.5973 47.9132 18.3027 47.9359 17.974C47.9699 17.634 47.9869 17.1693 47.9869 16.58C47.9869 16.0927 47.9699 15.6903 47.9359 15.373C47.9019 15.0557 47.8396 14.7837 47.7489 14.557C47.6129 14.2057 47.3692 13.9507 47.0179 13.792C46.6779 13.622 46.2076 13.537 45.6069 13.537C44.8929 13.537 44.3772 13.6107 44.0599 13.758C43.7539 13.894 43.5442 14.1717 43.4309 14.591C43.3289 15.0103 43.2779 15.7017 43.2779 16.665C43.2779 17.651 43.3289 18.3537 43.4309 18.773C43.5442 19.1923 43.7539 19.47 44.0599 19.606C44.3772 19.742 44.9042 19.81 45.6409 19.81ZM67.1318 21V11.803H67.0638L63.0518 21H61.9808L57.9858 11.803H57.9178V21H56.5408V9.304H58.5128L62.5078 18.399H62.5928L66.5878 9.304H68.5598V21H67.1318ZM75.1767 21.136C73.964 21.136 73.097 21.017 72.5757 20.779C72.0543 20.5297 71.72 20.116 71.5727 19.538C71.4367 18.9487 71.3687 17.991 71.3687 16.665C71.3687 15.339 71.4367 14.387 71.5727 13.809C71.72 13.2197 72.0543 12.806 72.5757 12.568C73.097 12.3187 73.964 12.194 75.1767 12.194C76.378 12.194 77.2393 12.3187 77.7607 12.568C78.282 12.806 78.6107 13.2197 78.7467 13.809C78.894 14.387 78.9677 15.339 78.9677 16.665C78.9677 17.991 78.894 18.9487 78.7467 19.538C78.6107 20.116 78.282 20.5297 77.7607 20.779C77.2393 21.017 76.378 21.136 75.1767 21.136ZM75.1767 19.878C76.004 19.878 76.5763 19.8043 76.8937 19.657C77.211 19.5097 77.4037 19.2433 77.4717 18.858C77.551 18.4613 77.5907 17.7303 77.5907 16.665C77.5907 15.5997 77.551 14.8743 77.4717 14.489C77.4037 14.0923 77.211 13.8203 76.8937 13.673C76.5763 13.5257 76.004 13.452 75.1767 13.452C74.3493 13.452 73.7713 13.5257 73.4427 13.673C73.1253 13.8203 72.927 14.0923 72.8477 14.489C72.7797 14.8743 72.7457 15.5997 72.7457 16.665C72.7457 17.7303 72.7797 18.4613 72.8477 18.858C72.927 19.2433 73.1253 19.5097 73.4427 19.657C73.7713 19.8043 74.3493 19.878 75.1767 19.878ZM81.5542 12.33H82.7782L82.8462 13.979H82.9482C83.1522 13.299 83.4922 12.8343 83.9682 12.585C84.4442 12.3243 85.0675 12.194 85.8382 12.194V13.673C85.0562 13.673 84.4555 13.792 84.0362 14.03C83.6169 14.268 83.3279 14.6363 83.1692 15.135C83.0105 15.6223 82.9312 16.2853 82.9312 17.124V21H81.5542V12.33ZM94.6494 17.158H88.7164C88.7164 17.9853 88.773 18.5747 88.8864 18.926C88.9997 19.2773 89.2434 19.5267 89.6174 19.674C90.0027 19.81 90.643 19.878 91.5384 19.878C92.411 19.878 93.3347 19.8157 94.3094 19.691V20.898C93.9467 20.966 93.4764 21.0227 92.8984 21.068C92.3204 21.1133 91.7707 21.136 91.2494 21.136C90.082 21.136 89.2207 21 88.6654 20.728C88.1214 20.456 87.7644 20.0197 87.5944 19.419C87.4244 18.8183 87.3394 17.906 87.3394 16.682C87.3394 15.4807 87.413 14.5797 87.5604 13.979C87.719 13.3783 88.0647 12.9307 88.5974 12.636C89.1414 12.3413 89.997 12.194 91.1644 12.194C92.2524 12.194 93.04 12.3413 93.5274 12.636C94.0147 12.9193 94.3207 13.3557 94.4454 13.945C94.5814 14.523 94.6494 15.4297 94.6494 16.665V17.158ZM91.1304 13.452C90.3937 13.452 89.861 13.52 89.5324 13.656C89.215 13.7807 88.9997 14.0243 88.8864 14.387C88.7844 14.7383 88.7277 15.3107 88.7164 16.104H93.3234V15.968C93.3234 15.22 93.2554 14.6703 93.1194 14.319C92.9947 13.9677 92.785 13.7353 92.4904 13.622C92.1957 13.5087 91.7424 13.452 91.1304 13.452Z" fill="#E4E4E4"/>
</svg>
