<svg width="61" height="36" viewBox="0 0 61 36" fill="none" xmlns="http://www.w3.org/2000/svg">
<path opacity="0.2" d="M7.51523 35L7.34145 35.9848L7.35084 35.9864L7.36027 35.9879L7.51523 35ZM3.46523 33.45L2.87387 34.2564L3.46523 33.45ZM1.21523 30.4L0.271377 30.7304L0.276414 30.7447L0.281889 30.759L1.21523 30.4ZM0.315235 25.3L1.31316 25.2356L0.315235 25.3ZM0.315235 10.3L1.31316 10.3644V10.3644L0.315235 10.3ZM1.21523 5.25L0.278812 4.89884L0.27404 4.91213L1.21523 5.25ZM3.46523 2.15L4.0566 2.95641L4.0566 2.9564L3.46523 2.15ZM7.51523 0.649998L7.6702 1.63792L7.67963 1.63644L7.68902 1.63478L7.51523 0.649998ZM20.3152 0.649998L20.1381 1.63418L20.1492 1.63617L20.1603 1.63792L20.3152 0.649998ZM24.3652 2.15L23.7739 2.9564L23.7739 2.95641L24.3652 2.15ZM26.5652 5.25L25.6214 5.58035L25.6264 5.59474L25.6319 5.60898L26.5652 5.25ZM27.5152 10.3L26.5173 10.3644L26.5178 10.3724L26.5185 10.3804L27.5152 10.3ZM27.5152 25.3L26.5185 25.2196L26.5178 25.2276L26.5173 25.2356L27.5152 25.3ZM26.5652 30.4L25.6288 30.0488L25.624 30.0621L26.5652 30.4ZM24.3652 33.45L23.7739 32.6436L23.7739 32.6436L24.3652 33.45ZM20.3152 35L20.4732 35.9874L20.4811 35.9862L20.489 35.9848L20.3152 35ZM16.3652 28.6L16.4699 29.5945L16.4956 29.5918L16.5212 29.5878L16.3652 28.6ZM17.8652 27.95L18.5379 28.6899V28.6899L17.8652 27.95ZM18.6652 26.3L19.6424 26.5124L19.6442 26.504L18.6652 26.3ZM18.9652 23.05L17.9664 23.0013L17.9658 23.0134L17.9655 23.0256L18.9652 23.05ZM18.9652 12.55L17.9655 12.5744L17.9658 12.5866L17.9664 12.5987L18.9652 12.55ZM18.6652 9.35L17.6862 9.55396L17.6881 9.56243L18.6652 9.35ZM17.8652 7.65L18.5379 6.91006L18.5379 6.91006L17.8652 7.65ZM16.3652 7.05L16.2008 8.03639L16.2306 8.04135L16.2606 8.04451L16.3652 7.05ZM11.4652 7.05L11.5699 8.04451L11.5918 8.0422L11.6136 8.03894L11.4652 7.05ZM9.96523 7.65L9.29256 6.91006L9.27495 6.92606L9.25813 6.94289L9.96523 7.65ZM9.21524 9.35L10.1924 9.56244L10.1942 9.55395L9.21524 9.35ZM8.86523 12.55L7.86642 12.5013L7.86583 12.5134L7.86553 12.5256L8.86523 12.55ZM8.86523 23.05L7.86553 23.0744L7.86583 23.0866L7.86642 23.0987L8.86523 23.05ZM9.21524 26.3L8.23622 26.504L8.23806 26.5124L9.21524 26.3ZM9.96523 27.95L9.25813 28.6571L9.27495 28.6739L9.29256 28.6899L9.96523 27.95ZM11.4652 28.6L11.3093 29.5878L11.3348 29.5918L11.3605 29.5945L11.4652 28.6ZM13.9152 34.4C11.3779 34.4 9.30062 34.2678 7.6702 34.0121L7.36027 35.9879C9.12984 36.2655 11.3193 36.4 13.9152 36.4V34.4ZM7.68902 34.0152C6.08435 33.732 4.89422 33.2579 4.0566 32.6436L2.87387 34.2564C4.03625 35.1088 5.54612 35.668 7.34145 35.9848L7.68902 34.0152ZM4.0566 32.6436C3.22962 32.0371 2.58854 31.1849 2.14858 30.041L0.281889 30.759C0.841929 32.2151 1.70085 33.3962 2.87387 34.2564L4.0566 32.6436ZM2.15909 30.0696C1.73287 28.8519 1.4431 27.2496 1.31316 25.2356L-0.682691 25.3644C-0.54596 27.4837 -0.235733 29.2815 0.271377 30.7304L2.15909 30.0696ZM1.31316 25.2356C1.18164 23.1971 1.11523 20.7199 1.11523 17.8H-0.884765C-0.884765 20.7468 -0.817843 23.2695 -0.682691 25.3644L1.31316 25.2356ZM1.11523 17.8C1.11523 14.8801 1.18164 12.4029 1.31316 10.3644L-0.682691 10.2356C-0.817843 12.3305 -0.884765 14.8532 -0.884765 17.8H1.11523ZM1.31316 10.3644C1.44316 8.34945 1.73291 6.76767 2.15643 5.58786L0.27404 4.91213C-0.235772 6.33232 -0.54602 8.11721 -0.682691 10.2356L1.31316 10.3644ZM2.15156 5.60112C2.59368 4.42214 3.23569 3.5584 4.0566 2.95641L2.87387 1.34359C1.69478 2.20826 0.836787 3.41119 0.278905 4.89888L2.15156 5.60112ZM4.0566 2.9564C4.88761 2.347 6.07025 1.88889 7.6702 1.63792L7.36027 -0.337921C5.56021 -0.0555597 4.04286 0.486336 2.87387 1.34359L4.0566 2.9564ZM7.68902 1.63478C9.31127 1.3485 11.3816 1.2 13.9152 1.2V-0.800002C11.3155 -0.800002 9.1192 -0.648507 7.34145 -0.334785L7.68902 1.63478ZM13.9152 1.2C16.4837 1.2 18.5521 1.3487 20.1381 1.63418L20.4924 -0.334185C18.745 -0.648707 16.5467 -0.800002 13.9152 -0.800002V1.2ZM20.1603 1.63792C21.7602 1.88889 22.9429 2.347 23.7739 2.9564L24.9566 1.3436C23.7876 0.486336 22.2703 -0.0555597 20.4702 -0.337921L20.1603 1.63792ZM23.7739 2.95641C24.589 3.55418 25.2118 4.41022 25.6214 5.58035L27.5091 4.91965C26.9853 3.42311 26.1414 2.21248 24.9566 1.34359L23.7739 2.95641ZM25.6319 5.60898C26.0826 6.78071 26.3876 8.3545 26.5173 10.3644L28.5132 10.2356C28.3762 8.11216 28.0479 6.31929 27.4986 4.89102L25.6319 5.60898ZM26.5185 10.3804C26.6823 12.4119 26.7652 14.8835 26.7652 17.8H28.7652C28.7652 14.8499 28.6815 12.3214 28.512 10.2196L26.5185 10.3804ZM26.7652 17.8C26.7652 20.7165 26.6823 23.1881 26.5185 25.2196L28.512 25.3804C28.6815 23.2786 28.7652 20.7501 28.7652 17.8H26.7652ZM26.5173 25.2356C26.3877 27.2445 26.0826 28.839 25.6289 30.0489L27.5016 30.7511C28.0479 29.2943 28.3761 27.4888 28.5132 25.3644L26.5173 25.2356ZM25.624 30.0621C25.2167 31.1968 24.5952 32.0413 23.7739 32.6436L24.9566 34.2564C26.1353 33.392 26.9804 32.2032 27.5064 30.7379L25.624 30.0621ZM23.7739 32.6436C22.9362 33.2579 21.7461 33.732 20.1415 34.0152L20.489 35.9848C22.2844 35.668 23.7942 35.1088 24.9566 34.2564L23.7739 32.6436ZM20.1572 34.0126C18.5628 34.2677 16.4873 34.4 13.9152 34.4V36.4C16.5431 36.4 18.7344 36.2657 20.4732 35.9874L20.1572 34.0126ZM13.9152 29.7C14.9329 29.7 15.7881 29.6663 16.4699 29.5945L16.2606 27.6055C15.6757 27.6671 14.8975 27.7 13.9152 27.7V29.7ZM16.5212 29.5878C17.2912 29.4662 17.99 29.1881 18.5379 28.6899L17.1926 27.2101C17.0072 27.3786 16.7059 27.5338 16.2093 27.6122L16.5212 29.5878ZM18.5379 28.6899C19.1246 28.1566 19.4554 27.3727 19.6424 26.5124L17.6881 26.0876C17.5417 26.7606 17.3392 27.0768 17.1926 27.2101L18.5379 28.6899ZM19.6442 26.504C19.8286 25.6187 19.931 24.467 19.9649 23.0744L17.9655 23.0256C17.9328 24.3663 17.8352 25.3813 17.6863 26.096L19.6442 26.504ZM19.964 23.0987C20.0318 21.7095 20.0652 19.9417 20.0652 17.8H18.0652C18.0652 19.925 18.032 21.6572 17.9664 23.0013L19.964 23.0987ZM20.0652 17.8C20.0652 15.6583 20.0318 13.8905 19.964 12.5013L17.9664 12.5987C18.032 13.9428 18.0652 15.675 18.0652 17.8H20.0652ZM19.9649 12.5256C19.931 11.1348 19.8289 9.9952 19.6424 9.13757L17.6881 9.56243C17.835 10.2381 17.9328 11.2318 17.9655 12.5744L19.9649 12.5256ZM19.6442 9.14605C19.46 8.26163 19.1328 7.45088 18.5379 6.91006L17.1926 8.38994C17.331 8.51579 17.5372 8.83837 17.6863 9.55395L19.6442 9.14605ZM18.5379 6.91006C17.9741 6.39748 17.2543 6.13806 16.4699 6.05549L16.2606 8.04451C16.7428 8.09527 17.0231 8.23585 17.1926 8.38994L18.5379 6.91006ZM16.5296 6.06361C15.8507 5.95045 14.9713 5.9 13.9152 5.9V7.9C14.9259 7.9 15.6798 7.94955 16.2008 8.03639L16.5296 6.06361ZM13.9152 5.9C12.9183 5.9 12.0487 5.95129 11.3169 6.06106L11.6136 8.03894C12.2151 7.9487 12.9789 7.9 13.9152 7.9V5.9ZM11.3606 6.05549C10.5761 6.13806 9.8564 6.39748 9.29256 6.91006L10.6379 8.38994C10.8074 8.23585 11.0877 8.09527 11.5699 8.04451L11.3606 6.05549ZM9.25813 6.94289C8.71911 7.48192 8.41695 8.27873 8.23625 9.14605L10.1942 9.55395C10.3469 8.82127 10.5447 8.48475 10.6723 8.3571L9.25813 6.94289ZM8.23806 9.13757C8.05416 9.9835 7.93411 11.1136 7.86642 12.5013L9.86405 12.5987C9.92969 11.253 10.043 10.2498 10.1924 9.56243L8.23806 9.13757ZM7.86553 12.5256C7.83192 13.9036 7.81524 15.6625 7.81524 17.8H9.81524C9.81524 15.6708 9.83188 13.9298 9.86494 12.5744L7.86553 12.5256ZM7.81524 17.8C7.81524 19.9375 7.83192 21.6964 7.86553 23.0744L9.86494 23.0256C9.83188 21.6702 9.81524 19.9292 9.81524 17.8H7.81524ZM7.86642 23.0987C7.93418 24.4878 8.05422 25.6302 8.23625 26.504L10.1942 26.096C10.0429 25.3698 9.92962 24.3455 9.86405 23.0013L7.86642 23.0987ZM8.23806 26.5124C8.42121 27.3549 8.72637 28.1254 9.25813 28.6571L10.6723 27.2429C10.5374 27.108 10.3426 26.7784 10.1924 26.0876L8.23806 26.5124ZM9.29256 28.6899C9.84051 29.1881 10.5392 29.4662 11.3093 29.5878L11.6212 27.6122C11.1246 27.5338 10.8233 27.3786 10.6379 27.2101L9.29256 28.6899ZM11.3605 29.5945C12.0424 29.6663 12.8975 29.7 13.9152 29.7V27.7C12.9329 27.7 12.1547 27.6671 11.5699 27.6055L11.3605 29.5945ZM35.6695 35H34.6695V36H35.6695V35ZM35.8195 25.35L34.8222 25.277L35.8195 25.35ZM36.4695 21.85L35.5345 21.4953L35.5291 21.5096L35.5242 21.524L36.4695 21.85ZM38.1695 19.4L38.8257 20.1546L38.8349 20.1467L38.8438 20.1385L38.1695 19.4ZM41.3195 17.5L40.9471 16.5719L40.9377 16.5757L40.9284 16.5797L41.3195 17.5ZM48.9195 14.45L49.292 15.3781L49.3019 15.374L48.9195 14.45ZM51.0695 13.4L51.6103 14.2412L51.6309 14.228L51.6508 14.2137L51.0695 13.4ZM51.9695 12.2L51.008 11.9253V11.9253L51.9695 12.2ZM51.6695 8L50.8375 8.5547L50.8464 8.56812L50.8558 8.58124L51.6695 8ZM49.8695 7.1L49.7175 8.08837L49.7361 8.09124L49.7549 8.09341L49.8695 7.1ZM43.4695 7L43.409 6.00183L43.4072 6.00195L43.4695 7ZM40.0195 7.25L40.1003 8.24673H40.1003L40.0195 7.25ZM36.3695 7.6H35.3695V8.71726L36.48 8.59388L36.3695 7.6ZM36.3695 1.3L36.1906 0.316129L35.3695 0.465422V1.3H36.3695ZM40.1195 0.749997L40.0013 -0.242991L40.0013 -0.242991L40.1195 0.749997ZM44.4195 0.349999L44.353 -0.647787L44.3515 -0.647685L44.4195 0.349999ZM53.2695 0.549999L53.1124 1.53758L53.1249 1.53956L53.1374 1.54123L53.2695 0.549999ZM57.2195 1.8L57.7074 0.927055V0.927055L57.2195 1.8ZM59.8695 4.65L58.9751 5.09721L58.9798 5.10653L58.9846 5.11574L59.8695 4.65ZM60.1695 14.9L59.2283 14.5621L59.2245 14.5729L59.2209 14.5838L60.1695 14.9ZM58.2195 18L57.557 17.251L58.2195 18ZM55.0695 19.9L55.4325 20.8319L55.4452 20.8267L55.0695 19.9ZM46.4695 23.25L46.1065 22.3182L46.0981 22.3215L46.4695 23.25ZM44.9195 24.1L45.5443 24.8809L45.5528 24.874L44.9195 24.1ZM44.2195 25.2L45.1753 25.4941L45.1783 25.4844L45.1811 25.4747L44.2195 25.2ZM44.0195 28.25H43.0195V29.25H44.0195V28.25ZM60.8695 28.25H61.8695V27.25H60.8695V28.25ZM60.8695 35V36H61.8695V35H60.8695ZM36.6695 35V30.25H34.6695V35H36.6695ZM36.6695 30.25C36.6695 28.3658 36.7192 26.7581 36.8169 25.423L34.8222 25.277C34.7199 26.6752 34.6695 28.3342 34.6695 30.25H36.6695ZM36.8169 25.423C36.9125 24.1153 37.1175 23.0386 37.4149 22.176L35.5242 21.524C35.1549 22.5947 34.9265 23.8514 34.8222 25.277L36.8169 25.423ZM37.4045 22.2047C37.7137 21.3894 38.1858 20.711 38.8257 20.1546L37.5134 18.6454C36.6199 19.4223 35.9586 20.3772 35.5345 21.4953L37.4045 22.2047ZM38.8438 20.1385C39.5012 19.5382 40.4433 18.9589 41.7107 18.4203L40.9284 16.5797C39.529 17.1744 38.3712 17.8618 37.4953 18.6615L38.8438 20.1385ZM41.692 18.4281L49.292 15.3781L48.5471 13.5219L40.9471 16.5719L41.692 18.4281ZM49.3019 15.374C50.2844 14.9674 51.0672 14.5903 51.6103 14.2412L50.5288 12.5588C50.1386 12.8097 49.488 13.1326 48.5372 13.526L49.3019 15.374ZM51.6508 14.2137C52.2667 13.7738 52.7248 13.1967 52.9311 12.4747L51.008 11.9253C50.9476 12.1366 50.8057 12.3596 50.4883 12.5863L51.6508 14.2137ZM52.9311 12.4747C53.1018 11.8772 53.1695 11.12 53.1695 10.25H51.1695C51.1695 11.0467 51.104 11.5895 51.008 11.9253L52.9311 12.4747ZM53.1695 10.25C53.1695 9.15437 53.0015 8.14422 52.4833 7.41876L50.8558 8.58124C51.0043 8.78911 51.1695 9.27896 51.1695 10.25H53.1695ZM52.5016 7.4453C51.9422 6.60626 51.0072 6.22463 49.9842 6.10659L49.7549 8.09341C50.4652 8.17537 50.7302 8.39373 50.8375 8.5547L52.5016 7.4453ZM50.0216 6.11163C49.0801 5.96678 47.8042 5.9 46.2195 5.9V7.9C47.7682 7.9 48.9256 7.96655 49.7175 8.08837L50.0216 6.11163ZM46.2195 5.9C45.4587 5.9 44.5203 5.93448 43.409 6.00183L43.53 7.99817C44.6188 7.93218 45.5137 7.9 46.2195 7.9V5.9ZM43.4072 6.00195C42.3335 6.06905 41.1773 6.15285 39.9387 6.25327L40.1003 8.24673C41.3285 8.14715 42.4723 8.06428 43.5319 7.99805L43.4072 6.00195ZM39.9387 6.25327C38.6957 6.35405 37.4692 6.47166 36.2591 6.60611L36.48 8.59388C37.6699 8.46167 38.8767 8.34595 40.1003 8.24673L39.9387 6.25327ZM37.3695 7.6V1.3H35.3695V7.6H37.3695ZM36.5484 2.28387C37.6239 2.08833 38.8531 1.90783 40.2377 1.74299L40.0013 -0.242991C38.586 -0.0744956 37.3152 0.111673 36.1906 0.316129L36.5484 2.28387ZM40.2377 1.74299C41.6204 1.57839 43.0369 1.44659 44.4876 1.34768L44.3515 -0.647685C42.8688 -0.546591 41.4187 -0.411727 40.0013 -0.242991L40.2377 1.74299ZM44.486 1.34778C45.9679 1.249 47.3287 1.2 48.5695 1.2V-0.800002C47.277 -0.800002 45.8712 -0.749 44.353 -0.647786L44.486 1.34778ZM48.5695 1.2C50.1898 1.2 51.7036 1.31344 53.1124 1.53758L53.4266 -0.437581C51.9022 -0.680111 50.2826 -0.800002 48.5695 -0.800002V1.2ZM53.1374 1.54123C54.5328 1.72728 55.725 2.11039 56.7317 2.67294L57.7074 0.927055C56.4474 0.22294 55.0063 -0.227286 53.4017 -0.441228L53.1374 1.54123ZM56.7317 2.67294C57.6739 3.19947 58.423 3.99299 58.9751 5.09721L60.764 4.20278C60.0494 2.77368 59.0318 1.66719 57.7074 0.927055L56.7317 2.67294ZM58.9846 5.11574C59.5477 6.18555 59.8695 7.70564 59.8695 9.75H61.8695C61.8695 7.52769 61.5247 5.64778 60.7544 4.18425L58.9846 5.11574ZM59.8695 9.75C59.8695 11.8239 59.6409 13.4129 59.2283 14.5621L61.1107 15.2379C61.6315 13.7871 61.8695 11.9427 61.8695 9.75H59.8695ZM59.2209 14.5838C58.8328 15.7478 58.2694 16.6208 57.557 17.251L58.8821 18.749C59.903 17.8459 60.6395 16.6522 61.1182 15.2162L59.2209 14.5838ZM57.557 17.251C56.7868 17.9323 55.8377 18.5095 54.6938 18.9733L55.4452 20.8267C56.7681 20.2905 57.9189 19.6011 58.8821 18.749L57.557 17.251ZM54.7066 18.9682L46.1066 22.3182L46.8325 24.1818L55.4325 20.8318L54.7066 18.9682ZM46.0981 22.3215C45.3803 22.6086 44.7614 22.9373 44.2863 23.326L45.5528 24.874C45.811 24.6627 46.2254 24.4247 46.8409 24.1785L46.0981 22.3215ZM44.2948 23.3191C43.7778 23.7328 43.4403 24.2874 43.258 24.9253L45.1811 25.4747C45.2655 25.1792 45.3946 25.0006 45.5442 24.8809L44.2948 23.3191ZM43.2638 24.9059C43.0887 25.4748 43.0195 26.1704 43.0195 26.95H45.0195C45.0195 26.2629 45.0837 25.7918 45.1753 25.4941L43.2638 24.9059ZM43.0195 26.95V28.25H45.0195V26.95H43.0195ZM44.0195 29.25H60.8695V27.25H44.0195V29.25ZM59.8695 28.25V35H61.8695V28.25H59.8695ZM60.8695 34H35.6695V36H60.8695V34Z" fill="#75DAB4"/>
</svg>
