<svg width="91" height="84" viewBox="0 0 91 84" fill="none" xmlns="http://www.w3.org/2000/svg">
<path opacity="0.08" d="M31.0223 6.9468C14.8126 -2.78998 6.38994 7.7582 4.20481 14.2494C-0.562748 25.2033 -3.03491 44.7526 6.58859 59.8906C45.325 109.792 81.6776 68.4103 86.4451 58.0649C100.761 27 70.9506 22.1605 66.183 21.552C47.1128 17.2921 39.3655 12.4237 31.0223 6.9468Z" fill="#75DAB4"/>
<g opacity="0.7" clip-path="url(#clip0_2_27393)">
<path d="M66.5812 54.4333H64.2146V59.1667H42.9146V61.5333H64.2146V65.0833C64.2146 67.0438 62.6251 68.6333 60.6646 68.6333H34.6312C33.363 68.6316 32.1912 67.9556 31.5545 66.8583L29.505 68.0417C30.5658 69.8693 32.5182 70.996 34.6312 71H60.6646C63.9309 70.996 66.5772 68.3496 66.5812 65.0833V54.4333Z" fill="#75DAB4"/>
<path d="M46.4646 63.8999H48.8313V66.2666H46.4646V63.8999Z" fill="#75DAB4"/>
<path d="M53.5645 31.95V29.5833H49.9545C49.3645 22.0321 43.3658 16.0334 35.8145 15.4434V11.8333H33.4479V15.4434C32.6505 15.5047 31.8595 15.6283 31.0812 15.8126V9.46667H50.0145V7.1H31.0812V5.91667C31.0812 3.95619 32.6707 2.36667 34.6312 2.36667H60.6645C61.5289 2.36667 62.3639 2.68215 63.0121 3.25417L64.578 1.47917C63.4975 0.52522 62.1056 -0.000577324 60.6645 4.75702e-07H34.6312C31.3649 0.00404508 28.7186 2.65037 28.7145 5.91667V16.5667C23.3861 18.7987 19.7546 23.8238 19.308 29.5833H15.6979V31.95H19.3109C19.869 39.5157 25.8822 45.5329 33.4479 46.0957V49.7H35.8145V46.0957C43.3803 45.5329 49.3934 39.5157 49.9516 31.95H53.5645ZM33.4479 41.4167V43.729C31.7971 43.5805 30.1908 43.1166 28.7145 42.3631V40.2333C28.7145 36.9659 31.3638 34.3167 34.6312 34.3167C37.8987 34.3167 40.5479 36.9659 40.5479 40.2333V42.3631C39.0722 43.1177 37.4653 43.5823 35.8145 43.7325V41.4167H33.4479ZM31.0812 28.4C31.0812 26.4395 32.6707 24.85 34.6312 24.85C36.5917 24.85 38.1812 26.4395 38.1812 28.4C38.1812 30.3605 36.5917 31.95 34.6312 31.95C32.6707 31.95 31.0812 30.3605 31.0812 28.4ZM43.3086 40.4702C43.1809 40.5881 43.0445 40.6829 42.9145 40.7921V40.2333C42.9117 37.1421 41.1875 34.3097 38.443 32.8872C40.3439 31.2861 41.0413 28.6675 40.1891 26.3332C39.3368 23.9983 37.1163 22.4452 34.6312 22.4452C32.1461 22.4452 29.9256 23.9983 29.0734 26.3332C28.2211 28.6675 28.9185 31.2861 30.8195 32.8872C28.0749 34.3097 26.3508 37.1421 26.3479 40.2333V40.7978C26.2167 40.6904 26.0804 40.5893 25.9538 40.476C23.5016 38.2769 21.9734 35.2307 21.6775 31.95H23.9812V29.5833H21.6746C22.253 23.3362 27.2007 18.3885 33.4479 17.8101V20.1167H35.8145V17.8101C42.0617 18.3885 47.0094 23.3362 47.5878 29.5833H45.2812V31.95H47.5849C47.2891 35.2307 45.7608 38.2769 43.3086 40.476V40.4702Z" fill="#75DAB4"/>
<path d="M79.5979 21.3001C80.2514 21.3001 80.7812 20.7702 80.7812 20.1167V5.91673C80.7812 5.26324 80.2514 4.7334 79.5979 4.7334H53.5646C52.9111 4.7334 52.3812 5.26324 52.3812 5.91673V20.1167C52.3812 20.7702 52.9111 21.3001 53.5646 21.3001H79.5979ZM54.7479 7.10007H78.4146V18.9334H54.7479V7.10007Z" fill="#75DAB4"/>
<path d="M57.1146 9.46655H61.848V11.8332H57.1146V9.46655Z" fill="#75DAB4"/>
<path d="M64.2146 9.46655H76.0479V11.8332H64.2146V9.46655Z" fill="#75DAB4"/>
<path d="M57.1146 14.2H76.048V16.5666H57.1146V14.2Z" fill="#75DAB4"/>
<path d="M79.3888 23.6667C78.4724 23.6685 77.5883 24.0048 76.9036 24.6132L66.5812 33.7135V23.6667H64.2146V35.5001H64.5566L57.8247 41.4404C53.445 41.6912 50.0198 45.3129 50.0146 49.7001V51.7877C50.0192 52.9618 49.3553 54.037 48.3025 54.5576C47.8108 54.8026 47.5526 55.3539 47.6785 55.8883C47.8045 56.4228 48.2817 56.8007 48.8312 56.8001H57.1146C61.5018 56.7949 65.1235 53.3697 65.3742 48.99L82.2084 29.9122C83.1855 28.804 83.423 27.226 82.8145 25.8791C82.2067 24.5323 80.8662 23.6667 79.3888 23.6667V23.6667ZM57.1146 54.4334H51.7029C52.1495 53.6233 52.383 52.7127 52.3812 51.7877V49.7001C52.3853 46.6175 54.7519 44.0527 57.8247 43.8025L63.0122 48.99C62.7626 52.0627 60.1971 54.43 57.1146 54.4334ZM80.4334 28.3469L64.1614 46.7891L60.0255 42.6544L78.4677 26.3813C79.0195 25.8971 79.8522 25.9242 80.3716 26.4431C80.8905 26.9625 80.9176 27.7951 80.4334 28.3469Z" fill="#75DAB4"/>
<path d="M13.3313 65.0833H39.3646C40.0181 65.0833 40.548 64.5534 40.548 63.8999V54.4333C40.548 53.7798 40.0181 53.2499 39.3646 53.2499H31.0813V47.3333H28.7146V53.2499H13.3313C12.6778 53.2499 12.1479 53.7798 12.1479 54.4333V63.8999C12.1479 64.5534 12.6778 65.0833 13.3313 65.0833ZM14.5146 55.6166H38.1813V62.7166H14.5146V55.6166Z" fill="#75DAB4"/>
<path d="M16.8812 57.9834H22.7979V60.3501H16.8812V57.9834Z" fill="#75DAB4"/>
<path d="M25.1646 57.9834H35.8146V60.3501H25.1646V57.9834Z" fill="#75DAB4"/>
<path d="M13.3313 16.5667H25.1646C25.8181 16.5667 26.3479 16.0369 26.3479 15.3834V5.91673C26.3479 5.26324 25.8181 4.7334 25.1646 4.7334H13.3313C12.6778 4.7334 12.1479 5.26324 12.1479 5.91673V15.3834C12.1479 16.0369 12.6778 16.5667 13.3313 16.5667ZM14.5146 7.10007H23.9813V14.2001H14.5146V7.10007Z" fill="#75DAB4"/>
<path d="M16.8812 9.46655H21.6146V11.8332H16.8812V9.46655Z" fill="#75DAB4"/>
</g>
<defs>
<clipPath id="clip0_2_27393">
<rect width="71" height="71" fill="white" transform="translate(12)"/>
</clipPath>
</defs>
</svg>
